# xmcd CD database file
#
# Track frame offsets:
#	150
#	11130
#	25892
#	46870
#	61295
#	78185
#	93330
#	112515
#	132405
#	149325
#	163720
#	184905
#	202187
#	220525
#	237622
#
# Disc length: 3353 seconds
#
# Revision: 0
# Processed by: cddbd v1.5.1PL0 Copyright (c) Steve Scherf et al.
# Submitted via: CDex 1.51
#
DISCID=cb0d170f
DTITLE=田中一郎スーパーノマッド - SUPERNOMAD
DYEAR=1990
DGENRE=J-Rock
TTITLE0=移民の歌
TTITLE1=チャイナ・グローブ
TTITLE2=ブラック・マジック・ウーマン
TTITLE3=シビレるR&R
TTITLE4=あぁちょっとだけ
TTITLE5=ブラックナイト
TTITLE6=ホンキー・トンク・ウイメン
TTITLE7=サンシャイン・オブ・ユア・ラブ
TTITLE8=呪われた夜
TTITLE9=雨を見たかい
TTITLE10=BLACK MAGIC WOMAN (KARAOKE)
TTITLE11=I SHOT THE SHERIFF (KARAOKE)
TTITLE12=HONKY TONK WOMAN (KARAOKE)
TTITLE13=ONE OF THESE NIGHT (KARAOKE)
TTITLE14=HAVE YOU EVER SEEN THE RAIN (KARAOKE)
EXTD=YEAR: 1990
EXTT0=
EXTT1=
EXTT2=
EXTT3=
EXTT4=
EXTT5=
EXTT6=
EXTT7=
EXTT8=
EXTT9=
EXTT10=
EXTT11=
EXTT12=
EXTT13=
EXTT14=
PLAYORDER=
